# xmcd
#
# Track frame offsets:
#	150
#	21766
#	44134
#	63338
#	78601
#	93593
#	112533
#	141522
#	161443
#	184369
#	202998
#	229838
#	252415
#	303785
#	323161
#
# Disc length: 4739 seconds
# Revision: 1
# Processed by: cddbd v1.5.2PL0 Copyright (c) Steve Scherf et al.
# Submitted via: dBpowerAMP V12.0
#
DISCID=cc12810f
DTITLE=Thorbjørn Risager and The Black Tornado - Songs From the Road [CD]
DYEAR=2015
DGENRE=Blues
TTITLE0=If You Wanna Leave
TTITLE1=Paradise
TTITLE2=Drowning
TTITLE3=Baby Please Don't Go
TTITLE4=Too Many Roads
TTITLE5=China Gate
TTITLE6=Rock 'N' Roll Ride
TTITLE7=Through the Tears
TTITLE8=Long Forgotten Track
TTITLE9=On My Way
TTITLE10=All I Want
TTITLE11=High Rolling
TTITLE12=Let the Good Times Roll
TTITLE13=I Won't Let You Down
TTITLE14=Opener
EXTD=
EXTT0=
EXTT1=
EXTT2=
EXTT3=
EXTT4=
EXTT5=
EXTT6=
EXTT7=
EXTT8=
EXTT9=
EXTT10=
EXTT11=
EXTT12=
EXTT13=
EXTT14=
PLAYORDER=
